<svg xmlns="http://www.w3.org/2000/svg" width="83.656" height="30.91" viewBox="0 0 83.656 30.91">
  <defs>
    <style>
      .cls-1 {
        fill: #4d4ccc;
        fill-rule: evenodd;
      }
    </style>
  </defs>
  <path id="_._копия_14" data-name=". копия 14" class="cls-1" d="M880.022,4644.09a3.5,3.5,0,0,0-2.041-1.98,3.084,3.084,0,0,0-2.584.12,3.7,3.7,0,0,0-1.873,2.03,3.339,3.339,0,0,0,.037,2.56,3.144,3.144,0,0,0,1.8,1.83,3.6,3.6,0,0,0,2.823.02,3.234,3.234,0,0,0,1.83-1.8A3.6,3.6,0,0,0,880.022,4644.09Zm-16.62-8.03a3.453,3.453,0,0,0-2.04-1.97,3.086,3.086,0,0,0-2.585.12,3.7,3.7,0,0,0-1.873,2.03,3.314,3.314,0,0,0,.037,2.55,3.147,3.147,0,0,0,1.8,1.83,3.511,3.511,0,0,0,2.823.02,3.234,3.234,0,0,0,1.83-1.8A3.6,3.6,0,0,0,863.4,4636.06Zm-20.038-8.02a3.5,3.5,0,0,0-2.041-1.98,3.086,3.086,0,0,0-2.585.12,3.685,3.685,0,0,0-1.873,2.04,3.31,3.31,0,0,0,.038,2.55,3.141,3.141,0,0,0,1.8,1.83,3.593,3.593,0,0,0,2.822.02,3.228,3.228,0,0,0,1.83-1.8A3.6,3.6,0,0,0,843.364,4628.04Zm-19.805-5.2a3.453,3.453,0,0,0-2.04-1.97,3.086,3.086,0,0,0-2.585.12,3.7,3.7,0,0,0-1.873,2.03,3.314,3.314,0,0,0,.037,2.55,3.147,3.147,0,0,0,1.8,1.83,3.553,3.553,0,0,0,2.823.02,3.234,3.234,0,0,0,1.83-1.8A3.6,3.6,0,0,0,823.559,4622.84Zm-20.159-2.6a3.5,3.5,0,0,0-2.04-1.98,3.052,3.052,0,0,0-2.585.13,3.666,3.666,0,0,0-1.873,2.03,3.314,3.314,0,0,0,.037,2.55,3.147,3.147,0,0,0,1.8,1.83,3.6,3.6,0,0,0,2.823.02,3.234,3.234,0,0,0,1.83-1.8A3.6,3.6,0,0,0,803.4,4620.24Z" transform="translate(-796.656 -4618.03)"/>
</svg>
