<svg xmlns="http://www.w3.org/2000/svg" width="85.844" height="21.69" viewBox="0 0 85.844 21.69">
  <defs>
    <style>
      .cls-1 {
        fill: #4d4ccc;
        fill-rule: evenodd;
      }
    </style>
  </defs>
  <path id="_._копия_12" data-name=". копия 12" class="cls-1" d="M588.882,4633.57a3.447,3.447,0,0,0,2.726.79,3.062,3.062,0,0,0,2.229-1.31,3.687,3.687,0,0,0,.707-2.67,3.3,3.3,0,0,0-1.223-2.24,3.179,3.179,0,0,0-2.449-.78,3.567,3.567,0,0,0-2.506,1.3,3.239,3.239,0,0,0-.777,2.45A3.6,3.6,0,0,0,588.882,4633.57Zm18.443-.66a3.485,3.485,0,0,0,2.726.79,3.06,3.06,0,0,0,2.229-1.31,3.688,3.688,0,0,0,.708-2.67,3.3,3.3,0,0,0-1.223-2.24,3.18,3.18,0,0,0-2.449-.78,3.572,3.572,0,0,0-2.507,1.3,3.239,3.239,0,0,0-.777,2.45A3.6,3.6,0,0,0,607.325,4632.91Zm21.468-2.26a3.491,3.491,0,0,0,2.726.8,3.1,3.1,0,0,0,2.229-1.32,3.688,3.688,0,0,0,.708-2.67,3.323,3.323,0,0,0-1.224-2.24,3.132,3.132,0,0,0-2.448-.77,3.562,3.562,0,0,0-2.507,1.29,3.252,3.252,0,0,0-.777,2.45A3.6,3.6,0,0,0,628.793,4630.65Zm19.94-4.64a3.485,3.485,0,0,0,2.726.79,3.074,3.074,0,0,0,2.229-1.32,3.688,3.688,0,0,0,.708-2.67,3.331,3.331,0,0,0-1.224-2.24,3.132,3.132,0,0,0-2.448-.77,3.531,3.531,0,0,0-2.507,1.3,3.229,3.229,0,0,0-.777,2.44A3.619,3.619,0,0,0,648.733,4626.01Zm19.043-7.11a3.485,3.485,0,0,0,2.726.79,3.062,3.062,0,0,0,2.229-1.31,3.688,3.688,0,0,0,.708-2.67,3.31,3.31,0,0,0-1.224-2.24,3.1,3.1,0,0,0-2.448-.78,3.531,3.531,0,0,0-2.507,1.3,3.239,3.239,0,0,0-.777,2.45A3.6,3.6,0,0,0,667.776,4618.9Z" transform="translate(-587.594 -4612.69)"/>
</svg>
