<svg xmlns="http://www.w3.org/2000/svg" width="18" height="18" viewBox="0 0 18 18">
  <defs>
    <style>
      .cls-1 {
        fill: #fff;
        fill-rule: evenodd;
      }
    </style>
  </defs>
  <path id="fullscreen" class="cls-1" d="M252.5,2084.12V2083h-3.938a0.561,0.561,0,0,0-.562.56v3.94h1.125v-2.58l5.226,5.22,0.793-.79-5.226-5.23H252.5Zm12.937-1.12H261.5v1.12h2.582l-5.226,5.23,0.793,0.79,5.226-5.22v2.58H266v-3.94A0.561,0.561,0,0,0,265.437,2083Zm-0.562,16.08-5.226-5.22-0.793.79,5.226,5.22H261.5V2101h3.937a0.561,0.561,0,0,0,.563-0.56v-3.94h-1.125v2.58Zm-10.524-5.23-5.226,5.23v-2.58H248v3.94a0.561,0.561,0,0,0,.562.56H252.5v-1.13h-2.582l5.226-5.22Z" transform="translate(-248 -2083)"/>
</svg>
